<svg width="106" height="106" viewBox="0 0 106 106" fill="none" xmlns="http://www.w3.org/2000/svg">
<path d="M44.5327 57.1197C46.4116 59.6315 48.8087 61.7098 51.5614 63.2138C54.3141 64.7177 57.3581 65.6121 60.4868 65.8361C63.6156 66.0602 66.7559 65.6088 69.6949 64.5125C72.6338 63.4161 75.3026 61.7006 77.5202 59.4822L90.6452 46.3572C94.6299 42.2315 96.8348 36.7058 96.785 30.9703C96.7351 25.2347 94.4346 19.7482 90.3787 15.6924C86.3229 11.6366 80.8364 9.33601 75.1009 9.28617C69.3653 9.23633 63.8396 11.4412 59.714 15.4259L52.189 22.9072" stroke="#132742" stroke-width="5" stroke-linecap="round" stroke-linejoin="round"/>
<path d="M62.0327 48.3697C60.1539 45.8579 57.7568 43.7795 55.0041 42.2756C52.2514 40.7716 49.2074 39.8773 46.0786 39.6532C42.9499 39.4292 39.8095 39.8806 36.8706 40.9769C33.9317 42.0732 31.2629 43.7888 29.0452 46.0072L15.9202 59.1322C11.9355 63.2579 9.73065 68.7835 9.78049 74.5191C9.83033 80.2547 12.1309 85.7412 16.1867 89.797C20.2425 93.8528 25.729 96.1534 31.4646 96.2032C37.2001 96.253 42.7258 94.0482 46.8515 90.0635L54.3327 82.5822" stroke="#132742" stroke-width="5" stroke-linecap="round" stroke-linejoin="round"/>
</svg>
